HIERARCHY
ROOT Hips
{
	OFFSET	0.00	0.00	0.00
	CHANNELS 6 Xposition Yposition Zposition Zrotation Xrotation Yrotation
	JOINT LeftUpLeg
	{
		OFFSET	 0.126116	-0.014019	-0.065224
		CHANNELS 3 Zrotation Xrotation Yrotation
		JOINT LeftLeg
		{
			OFFSET	 0.000000	 0.000000	 0.569914
			CHANNELS 3 Zrotation Xrotation Yrotation
			JOINT LeftFoot
			{
				OFFSET	 0.000000	 0.000000	 0.544423
				CHANNELS 3 Zrotation Xrotation Yrotation
				JOINT LeftToeBase
				{
					OFFSET	 0.000000	 0.000000	 0.207117
					CHANNELS 3 Zrotation Xrotation Yrotation
					End Site
					{
						OFFSET	 0.000000	 0.000000	 0.207117
					}
				}
			}
		}
	}
	JOINT RightUpLeg
	{
		OFFSET	-0.124023	-0.008373	-0.065224
		CHANNELS 3 Zrotation Xrotation Yrotation
		JOINT RightLeg
		{
			OFFSET	 0.000000	 0.000000	 0.570047
			CHANNELS 3 Zrotation Xrotation Yrotation
			JOINT RightFoot
			{
				OFFSET	 0.000000	 0.000000	 0.544354
				CHANNELS 3 Zrotation Xrotation Yrotation
				JOINT RightToeBase
				{
					OFFSET	 0.000000	 0.000000	 0.207540
					CHANNELS 3 Zrotation Xrotation Yrotation
					End Site
					{
						OFFSET	 0.000000	 0.000000	 0.207540
					}
				}
			}
		}
	}
	JOINT Spine
	{
		OFFSET	 0.000184	-0.007763	 0.117403
		CHANNELS 3 Zrotation Xrotation Yrotation
		JOINT Spine1
		{
			OFFSET	 0.000000	 0.000000	 0.137269
			CHANNELS 3 Zrotation Xrotation Yrotation
			JOINT Spine2
			{
				OFFSET	 0.000000	 0.000000	 0.156879
				CHANNELS 3 Zrotation Xrotation Yrotation
				JOINT LeftShoulder
				{
					OFFSET	 0.080501	-0.002496	 0.160144
					CHANNELS 3 Zrotation Xrotation Yrotation
					JOINT LeftArm
					{
						OFFSET	 0.000000	 0.000000	 0.164363
						CHANNELS 3 Zrotation Xrotation Yrotation
						JOINT LeftForeArm
						{
							OFFSET	 0.000000	 0.000000	 0.364576
							CHANNELS 3 Zrotation Xrotation Yrotation
							JOINT LeftHand
							{
								OFFSET	 0.000000	 0.000000	 0.360812
								CHANNELS 3 Zrotation Xrotation Yrotation
								JOINT LeftHandIndex1
								{
									OFFSET	 0.000000	 0.000000	 0.086006
									CHANNELS 3 Zrotation Xrotation Yrotation
									JOINT LeftHandIndex2
									{
										OFFSET	 0.000000	 0.000000	 0.047236
										CHANNELS 3 Zrotation Xrotation Yrotation
										JOINT LeftHandIndex3
										{
											OFFSET	-0.004284	-0.000551	 0.038166
											CHANNELS 3 Zrotation Xrotation Yrotation
											End Site
											{
												OFFSET	-0.004284	-0.000551	 0.038166
											}
										}
									}
								}
							}
						}
					}
				}
				JOINT Neck
				{
					OFFSET	 0.000000	 0.000000	 0.176489
					CHANNELS 3 Zrotation Xrotation Yrotation
					JOINT Head
					{
						OFFSET	 0.000000	-0.001747	 0.077940
						CHANNELS 3 Zrotation Xrotation Yrotation
						End Site
						{
							OFFSET	 0.000000	-0.001747	 0.077940
						}
					}
				}
				JOINT RightShoulder
				{
					OFFSET	-0.080363	 0.000306	 0.159706
					CHANNELS 3 Zrotation Xrotation Yrotation
					JOINT RightArm
					{
						OFFSET	 0.000000	 0.000000	 0.164196
						CHANNELS 3 Zrotation Xrotation Yrotation
						JOINT RightForeArm
						{
							OFFSET	 0.000000	 0.000000	 0.365611
							CHANNELS 3 Zrotation Xrotation Yrotation
							JOINT RightHand
							{
								OFFSET	 0.000000	 0.000000	 0.360648
								CHANNELS 3 Zrotation Xrotation Yrotation
								JOINT RightHandIndex1
								{
									OFFSET	 0.000000	 0.000000	 0.069977
									CHANNELS 3 Zrotation Xrotation Yrotation
									JOINT RightHandIndex2
									{
										OFFSET	 0.000000	 0.000000	 0.052305
										CHANNELS 3 Zrotation Xrotation Yrotation
										JOINT RightHandIndex3
										{
											OFFSET	 0.009002	-0.000782	 0.042196
											CHANNELS 3 Zrotation Xrotation Yrotation
											End Site
											{
												OFFSET	 0.009002	-0.000782	 0.042196
											}
										}
									}
								}
							}
						}
					}
				}
			}
		}
	}
}
MOTION
Frames:    11
Frame Time: 0.03333334
-7.709032	-20.553130	-0.240285	-48.938320	 0.408280	 0.567513	 2.001547	-33.485880	 172.316400	-6.447581	-68.926030	-7.114077	 177.310900	 86.589290	 179.714900	-2.320579	 37.867450	-0.219876	-0.441406	-35.100410	-177.354200	 1.941920	-73.790470	 4.383597	-178.147400	 85.248820	 179.707200	 2.403291	 22.357000	-0.125896	 37.490490	 14.236060	 1.273156	 1.022333	 7.714828	-1.989899	 1.424070	 4.795057	 0.034640	-142.174800	 89.574800	-126.253400	 49.915510	 61.142270	-77.827270	-11.526290	-2.887215	-22.038040	-6.022099	-2.892113	-5.740319	-3.812334	 37.924440	-2.927599	-2.450526	 36.184240	 0.754587	-1.378229	 35.397820	-2.634230	 1.503329	 2.605842	-3.157312	 0.914175	 7.941886	 2.654132	 93.901680	 85.926570	 171.566900	-54.133920	 70.384190	 73.371350	-8.012791	-13.083080	 22.812620	-20.383080	-3.387281	 10.012020	 6.437017	 35.671460	-0.771858	 2.830251	 35.756010	-7.813440	-2.350882	 35.473990	 5.254307
-7.706595	-20.553200	-0.231216	-49.688140	 1.540926	 0.490423	 2.242547	-33.953470	 172.396500	-5.707895	-67.522070	-6.117045	 176.890800	 87.095660	-179.649000	-2.333061	 36.530560	-0.186244	-0.029630	-35.476850	-177.520900	 1.639048	-71.834380	 4.331129	-177.635600	 85.634570	 179.338500	 2.405232	 21.136460	-0.150453	 36.312130	 14.313010	 1.168476	 1.061270	 7.538447	-1.981337	 1.543378	 4.613729	 0.039989	-132.674900	 89.500720	-135.730900	 48.564180	 61.200560	-76.978050	-10.280720	-3.532747	-22.856340	-4.967964	-4.603938	-5.868352	-3.812334	 37.924440	-2.927599	-2.450526	 36.184240	 0.754587	-1.378229	 35.397820	-2.634230	 1.645765	 2.422399	-3.119892	 1.018191	 7.787354	 3.030539	 94.059030	 85.971590	 171.320500	-54.087700	 70.605660	 73.303620	-9.451714	-13.589440	 23.572650	-21.261200	-5.135556	 10.139430	 6.437017	 35.671460	-0.771858	 2.830251	 35.756010	-7.813440	-2.350882	 35.473990	 5.254307
-7.704209	-20.553150	-0.222755	-50.279580	 2.656925	 0.357723	 2.434808	-34.512360	 172.571000	-5.088609	-66.315960	-5.292921	 176.288500	 87.589060	-178.829700	-2.342090	 35.473980	-0.160330	 0.333264	-35.969410	-177.550900	 1.434066	-70.147830	 4.331565	-177.133100	 85.990240	 178.975000	 2.406016	 20.499880	-0.163169	 34.894120	 14.307520	 1.111607	 1.061475	 7.380195	-1.950453	 1.651727	 4.465073	 0.044947	-127.169100	 89.440830	-141.247900	 47.257740	 61.149730	-76.111170	-9.064829	-4.149304	-23.599350	-4.023184	-6.336428	-5.956619	-3.812334	 37.924440	-2.927599	-2.450526	 36.184240	 0.754587	-1.378229	 35.397820	-2.634230	 1.763933	 2.280187	-3.071944	 1.128095	 7.655138	 3.421749	 94.208260	 86.008410	 171.081300	-54.025900	 70.866090	 73.086490	-10.680360	-14.050100	 24.300990	-21.957470	-6.903231	 10.232720	 6.437017	 35.671460	-0.771858	 2.830251	 35.756010	-7.813440	-2.350882	 35.473990	 5.254307
-7.701702	-20.553210	-0.214659	-50.876350	 3.726630	 0.163145	 2.650663	-35.019410	 172.812700	-4.612195	-65.169700	-4.602814	 175.327100	 88.079400	-177.667600	-2.349627	 34.522640	-0.137452	 0.718543	-36.524220	-177.458800	 1.046855	-68.791660	 4.182563	-176.393000	 86.435810	 178.288100	 2.406396	 20.140210	-0.170320	 33.244380	 14.298960	 1.105078	 1.067620	 7.243908	-1.896821	 1.757073	 4.327015	 0.049933	-123.518200	 89.391870	-144.921000	 46.013380	 61.051060	-75.354870	-8.011089	-4.742881	-24.380900	-3.245573	-8.164706	-6.007868	-3.812334	 37.924440	-2.927599	-2.450526	 36.184240	 0.754587	-1.378229	 35.397820	-2.634230	 1.878241	 2.160091	-3.004232	 1.236842	 7.518700	 3.821481	 94.318160	 86.035680	 170.907800	-54.024030	 71.168450	 72.841700	-11.773880	-14.489330	 25.027030	-22.530500	-8.768970	 10.293110	 6.437017	 35.671460	-0.771858	 2.830251	 35.756010	-7.813440	-2.350882	 35.473990	 5.254307
-7.699358	-20.553610	-0.207128	-51.515970	 4.675466	-0.062210	 2.939751	-35.369550	 173.096100	-4.342246	-64.078370	-4.068303	 173.712500	 88.553010	-175.891200	-2.356099	 33.644550	-0.116691	 1.136918	-37.108350	-177.289500	 0.414645	-67.803700	 3.842176	-175.179800	 87.058020	 177.005000	 2.406683	 19.827000	-0.176531	 31.394590	 14.361470	 1.150129	 1.115119	 7.150216	-1.835227	 1.863244	 4.197646	 0.055060	-121.104400	 89.352290	-147.348700	 44.863600	 60.932770	-74.788520	-7.075954	-5.344922	-25.180950	-2.543895	-10.088810	-6.016170	-3.812334	 37.924440	-2.927599	-2.450526	 36.184240	 0.754587	-1.378229	 35.397820	-2.634230	 2.000412	 2.052874	-2.935504	 1.334721	 7.380887	 4.192729	 94.398390	 86.056980	 170.784900	-53.976860	 71.488330	 72.526730	-12.931910	-14.968720	 25.696160	-23.194170	-10.731770	 10.314140	 6.437017	 35.671460	-0.771858	 2.830251	 35.756010	-7.813440	-2.350882	 35.473990	 5.254307
-7.697204	-20.554170	-0.199882	-52.212670	 5.504806	-0.310225	 3.333401	-35.561730	 173.428300	-4.239341	-62.972560	-3.622652	 170.466400	 89.026820	-172.506100	-2.361514	 32.860370	-0.098425	 1.550618	-37.692080	-177.074500	-0.424117	-66.874300	 3.307936	-173.479900	 87.688610	 175.133400	 2.406953	 19.487220	-0.183258	 29.165480	 14.564400	 1.253799	 1.196714	 7.127898	-1.765343	 1.972024	 4.089471	 0.060140	-119.512700	 89.320460	-148.939200	 43.744790	 60.830700	-74.411250	-6.020036	-6.069534	-26.020870	-1.633573	-12.257250	-5.968212	-3.812334	 37.924440	-2.927599	-2.450526	 36.184240	 0.754587	-1.378229	 35.397820	-2.634230	 2.129539	 1.943254	-2.880667	 1.423464	 7.279385	 4.511108	 94.464290	 86.077030	 170.689200	-53.855530	 71.838320	 72.139420	-14.238250	-15.512000	 26.341180	-24.009100	-12.942240	 10.285060	 6.437017	 35.671460	-0.771858	 2.830251	 35.756010	-7.813440	-2.350882	 35.473990	 5.254307
-7.695663	-20.554860	-0.194273	-52.763610	 6.139812	-0.505594	 3.709939	-35.617810	 173.706300	-4.191866	-62.038120	-3.259029	 164.122100	 89.403570	-166.036300	-2.364967	 32.330020	-0.086218	 1.802843	-38.103950	-176.799700	-1.168739	-66.071300	 2.750226	-171.813500	 88.136800	 173.261700	 2.407103	 19.279430	-0.187370	 26.879630	 14.788050	 1.356106	 1.251291	 7.153429	-1.699934	 2.051811	 4.021275	 0.063798	-118.658700	 89.303670	-149.805600	 42.846590	 60.803960	-74.295910	-4.962486	-6.813678	-26.732670	-0.567607	-14.304830	-5.866144	-3.812334	 37.924440	-2.927599	-2.450526	 36.184240	 0.754587	-1.378229	 35.397820	-2.634230	 2.220139	 1.868759	-2.843051	 1.492009	 7.216856	 4.682220	 94.518340	 86.096310	 170.616300	-53.660190	 72.176990	 71.706490	-15.458210	-16.010370	 26.852100	-24.830440	-15.027430	 10.205650	 6.437017	 35.671460	-0.771858	 2.830251	 35.756010	-7.813440	-2.350882	 35.473990	 5.254307
-7.694715	-20.555520	-0.189040	-53.155310	 6.721268	-0.634452	 4.054682	-35.679430	 173.921100	-4.074784	-61.149600	-2.862642	 145.582800	 89.711970	-147.337900	-2.367462	 31.933000	-0.077151	 1.891890	-38.275240	-176.677300	-1.820028	-65.212260	 2.175357	-169.902600	 88.499630	 171.124900	 2.407117	 19.246030	-0.188024	 24.207020	 14.989320	 1.395663	 1.246253	 7.218818	-1.655228	 2.100965	 3.992339	 0.065859	-118.208100	 89.301700	-150.295100	 42.049850	 60.884090	-74.420230	-3.917718	-7.620866	-27.402210	 0.660257	-16.488190	-5.695507	-3.812334	 37.924440	-2.927599	-2.450526	 36.184240	 0.754587	-1.378229	 35.397820	-2.634230	 2.264144	 1.866086	-2.785189	 1.554576	 7.155807	 4.700692	 94.581790	 86.120660	 170.534500	-53.316300	 72.570700	 71.087680	-16.732680	-16.509370	 27.298520	-25.753270	-17.250050	 10.064790	 6.437017	 35.671460	-0.771858	 2.830251	 35.756010	-7.813440	-2.350882	 35.473990	 5.254307
-7.694213	-20.556050	-0.184328	-53.323280	 7.265351	-0.674228	 4.291807	-35.826830	 174.017800	-3.866189	-60.355850	-2.467956	 86.084140	 89.838070	-87.663310	-2.368963	 31.688020	-0.071578	 1.802027	-38.294640	-176.604200	-2.229836	-64.339920	 1.701401	-167.626200	 88.780670	 168.655000	 2.407071	 19.316430	-0.186638	 21.255880	 15.086830	 1.341074	 1.174970	 7.299053	-1.655446	 2.112640	 3.997450	 0.066130	-118.111500	 89.315000	-150.466300	 41.410270	 61.011460	-74.679000	-2.977368	-8.403484	-27.998770	 1.849757	-18.696130	-5.456076	-3.812334	 37.924440	-2.927599	-2.450526	 36.184240	 0.754587	-1.378229	 35.397820	-2.634230	 2.245862	 1.917062	-2.717637	 1.612708	 7.107138	 4.609340	 94.666130	 86.149640	 170.421100	-52.783520	 73.021790	 70.231210	-17.981820	-16.967560	 27.655800	-26.731370	-19.499730	 9.861000	 6.437017	 35.671460	-0.771858	 2.830251	 35.756010	-7.813440	-2.350882	 35.473990	 5.254307
-7.693733	-20.556020	-0.180328	-53.293910	 7.739863	-0.674108	 4.415833	-36.034390	 174.069700	-3.620425	-59.675020	-2.129485	 38.169740	 89.741310	-39.587760	-2.369242	 31.641620	-0.070525	 1.574748	-38.436390	-176.586500	-2.340317	-63.606420	 1.403230	-164.834500	 89.000250	 165.738000	 2.406982	 19.451740	-0.183963	 18.130950	 15.144930	 1.269751	 1.066819	 7.366328	-1.713567	 2.098671	 4.023977	 0.065204	-118.919400	 89.348980	-149.740200	 40.979350	 61.124270	-75.057800	-2.201058	-9.176063	-28.710830	 2.887874	-20.860750	-5.152397	-3.812334	 37.924440	-2.927599	-2.450526	 36.184240	 0.754587	-1.378229	 35.397820	-2.634230	 2.188444	 1.989278	-2.696061	 1.658423	 7.082460	 4.493967	 94.670170	 86.131580	 170.380800	-52.051070	 73.528100	 69.130970	-19.130000	-17.433820	 28.005740	-27.732780	-21.709320	 9.596961	 6.437017	 35.671460	-0.771858	 2.830251	 35.756010	-7.813440	-2.350882	 35.473990	 5.254307
-7.693668	-20.555980	-0.176958	-53.169980	 8.119808	-0.683040	 4.465024	-36.181980	 174.129800	-3.394587	-59.118820	-1.873222	 23.840860	 89.606340	-25.131690	-2.368865	 31.704000	-0.071943	 1.324039	-38.550110	-176.576600	-2.263999	-63.011150	 1.263768	-161.371700	 89.179320	 162.218600	 2.406810	 19.676190	-0.179523	 15.002760	 15.189830	 1.248655	 0.950339	 7.408546	-1.802399	 2.070899	 4.045053	 0.063957	-121.665300	 89.413160	-147.066200	 40.796500	 61.192310	-75.587040	-1.570787	-9.942904	-29.554390	 3.777028	-22.887930	-4.800344	-3.812334	 37.924440	-2.927599	-2.450526	 36.184240	 0.754587	-1.378229	 35.397820	-2.634230	 2.111864	 2.028189	-2.753565	 1.688799	 7.084763	 4.407514	 94.590740	 86.067510	 170.421400	-51.175040	 74.070330	 67.881350	-20.112740	-17.908310	 28.360660	-28.714830	-23.784550	 9.285745	 6.437017	 35.671460	-0.771858	 2.830251	 35.756010	-7.813440	-2.350882	 35.473990	 5.254307
